# MagicaVoxel @ Ephtracy

# group
o 

# material
mtllib caine.mtl
usemtl palette

# normals
vn -1 0 0
vn 1 0 0
vn 0 0 1
vn 0 0 -1
vn 0 -1 0
vn 0 1 0

# texcoords
vt 0.208984 0.5
vt 0.849609 0.5
vt 0.857422 0.5
vt 0.861328 0.5
vt 0.900391 0.5
vt 0.931641 0.5
vt 0.962891 0.5
vt 0.994141 0.5

# verts
v -1.1 1.9 0.1
v -1.1 1.9 -0.1
v -1.1 2.1 0.1
v -1.1 2.1 -0.1
v -0.5 0.7 0.1
v -0.5 0.7 -0.1
v -0.5 1 0.2
v -0.5 1 0.1
v -0.5 1.4 0
v -0.5 1.4 -0.1
v -0.5 1.5 0.2
v -0.5 1.5 0
v -0.5 3 0
v -0.5 3 -0.4
v -0.5 3.1 0
v -0.5 3.1 -0.4
v -0.4 0 0.2
v -0.4 0 -0.1
v -0.4 0.1 0.2
v -0.4 0.1 0.1
v -0.4 0.6 -0.1
v -0.4 0.6 -0.2
v -0.4 0.7 0.1
v -0.4 0.7 -0.1
v -0.4 1.4 0
v -0.4 1.4 -0.1
v -0.4 1.4 -0.2
v -0.4 1.5 0.1
v -0.4 1.5 0
v -0.4 1.9 0.1
v -0.4 1.9 -0.1
v -0.4 2.2 0.4
v -0.4 2.2 -0.2
v -0.4 2.3 0.4
v -0.4 2.3 0.3
v -0.4 2.3 0.2
v -0.4 2.3 0.1
v -0.4 2.3 0
v -0.4 2.3 -0.1
v -0.4 2.3 -0.2
v -0.4 2.4 0.3
v -0.4 2.4 0.2
v -0.4 2.4 0.1
v -0.4 2.4 0
v -0.4 2.4 -0.1
v -0.4 2.4 -0.2
v -0.4 2.7 0.3
v -0.4 2.7 0.2
v -0.4 2.7 0.1
v -0.4 2.7 0
v -0.4 2.7 -0.1
v -0.4 2.7 -0.2
v -0.4 2.8 0.4
v -0.4 2.8 0.3
v -0.4 2.8 0.2
v -0.4 2.8 0.1
v -0.4 2.8 0
v -0.4 2.8 -0.1
v -0.4 2.8 -0.2
v -0.4 2.9 0.4
v -0.4 2.9 -0.2
v -0.4 3.1 -0.1
v -0.4 3.1 -0.3
v -0.4 3.2 -0.1
v -0.4 3.2 -0.3
v -0.4 3.4 -0.1
v -0.4 3.4 -0.3
v -0.3 1.4 -0.1
v -0.3 1.4 -0.2
v -0.3 1.8 -0.1
v -0.3 1.8 -0.2
v -0.3 2.2 0.5
v -0.3 2.2 0.4
v -0.3 2.3 0.5
v -0.3 2.3 0.4
v -0.3 2.4 0.5
v -0.3 2.4 0.4
v -0.3 2.4 0.2
v -0.3 2.4 0.1
v -0.3 2.4 0
v -0.3 2.7 0.5
v -0.3 2.7 0.4
v -0.3 2.7 0.2
v -0.3 2.7 0.1
v -0.3 2.7 0
v -0.3 2.8 0.5
v -0.3 2.8 0.4
v -0.3 2.9 0.5
v -0.3 2.9 0.4
v -0.2 1.8 -0.1
v -0.2 1.8 -0.2
v -0.2 2 -0.1
v -0.2 2 -0.2
v -0.1 2.3 0.5
v -0.1 2.3 0.4
v -0.1 2.4 0.5
v -0.1 2.4 0.4
v -0.1 2.7 0.5
v -0.1 2.7 0.4
v -0.1 2.8 0.5
v -0.1 2.8 0.4
v 0 2.4 0.2
v 0 2.4 0.1
v 0 2.4 0
v 0 2.6 0.2
v 0 2.6 0.1
v 0 2.7 0.2
v 0 2.7 0
v 0.1 0 0.2
v 0.1 0 -0.1
v 0.1 0.1 0.2
v 0.1 0.1 0.1
v 0.1 0.6 -0.1
v 0.1 1 0.2
v 0.1 1 0.1
v 0.1 1 -0.1
v 0.1 1.4 0.2
v 0.1 1.4 0.1
v 0.1 2.3 0.5
v 0.1 2.3 0.4
v 0.1 2.4 0.5
v 0.1 2.4 0.4
v 0.1 2.7 0.5
v 0.1 2.7 0.4
v 0.1 2.8 0.5
v 0.1 2.8 0.4
v 0.2 1.4 0.2
v 0.2 1.4 0.1
v 0.2 1.5 0.2
v 0.2 1.5 0.1
v 0.2 2.3 0.3
v 0.2 2.3 0.2
v 0.2 2.3 0.1
v 0.2 2.3 0
v 0.2 2.3 -0.1
v 0.2 2.3 -0.2
v 0.2 2.4 0.3
v 0.2 2.4 0.2
v 0.2 2.4 0.1
v 0.2 2.4 0
v 0.2 2.4 -0.1
v 0.2 2.4 -0.2
v 0.2 2.7 0.3
v 0.2 2.7 0.2
v 0.2 2.7 0.1
v 0.2 2.7 0
v 0.2 2.7 -0.1
v 0.2 2.7 -0.2
v 0.2 2.8 0.3
v 0.2 2.8 0.2
v 0.2 2.8 0.1
v 0.2 2.8 0
v 0.2 2.8 -0.1
v 0.2 2.8 -0.2
v 0.8 1.4 0
v 0.8 1.4 -0.1
v 0.8 1.9 0
v 0.8 1.9 -0.1
v 0.8 2.1 0
v 0.8 2.1 -0.1
v 0.8 2.3 0
v 0.8 2.3 -0.1
v 0.8 2.4 0
v 0.8 2.4 -0.1
v -0.3 1.4 0.2
v -0.3 1.4 0.1
v -0.3 1.5 0.2
v -0.3 1.5 0.1
v -0.3 2.3 0.3
v -0.3 2.3 0.2
v -0.3 2.3 0.1
v -0.3 2.3 0
v -0.3 2.3 -0.1
v -0.3 2.3 -0.2
v -0.3 2.4 0.3
v -0.3 2.4 0.2
v -0.3 2.4 0.1
v -0.3 2.4 0
v -0.3 2.4 -0.1
v -0.3 2.4 -0.2
v -0.3 2.7 0.3
v -0.3 2.7 0.2
v -0.3 2.7 0.1
v -0.3 2.7 0
v -0.3 2.7 -0.1
v -0.3 2.7 -0.2
v -0.3 2.8 0.3
v -0.3 2.8 0.2
v -0.3 2.8 0.1
v -0.3 2.8 0
v -0.3 2.8 -0.1
v -0.3 2.8 -0.2
v -0.2 0 0.2
v -0.2 0 -0.1
v -0.2 0.1 0.2
v -0.2 0.1 0.1
v -0.2 0.6 -0.1
v -0.2 1 0.2
v -0.2 1 0.1
v -0.2 1 -0.1
v -0.2 1.4 0.2
v -0.2 1.4 0.1
v -0.2 2.3 0.5
v -0.2 2.3 0.4
v -0.2 2.4 0.5
v -0.2 2.4 0.4
v -0.2 2.7 0.5
v -0.2 2.7 0.4
v -0.2 2.8 0.5
v -0.2 2.8 0.4
v -0.2 3.1 -0.1
v -0.2 3.1 -0.3
v -0.2 3.2 -0.1
v -0.2 3.2 -0.3
v -0.2 3.4 -0.1
v -0.2 3.4 -0.3
v -0.1 2.4 0.2
v -0.1 2.4 0.1
v -0.1 2.4 0
v -0.1 2.6 0.2
v -0.1 2.6 0.1
v -0.1 2.7 0.2
v -0.1 2.7 0
v -0.1 3 0
v -0.1 3 -0.4
v -0.1 3.1 0
v -0.1 3.1 -0.4
v 0 2.3 0.5
v 0 2.3 0.4
v 0 2.4 0.5
v 0 2.4 0.4
v 0 2.7 0.5
v 0 2.7 0.4
v 0 2.8 0.5
v 0 2.8 0.4
v 0.1 1.8 -0.1
v 0.1 1.8 -0.2
v 0.1 2 -0.1
v 0.1 2 -0.2
v 0.2 1.4 -0.1
v 0.2 1.4 -0.2
v 0.2 1.8 -0.1
v 0.2 1.8 -0.2
v 0.2 2.2 0.5
v 0.2 2.2 0.4
v 0.2 2.3 0.5
v 0.2 2.3 0.4
v 0.2 2.4 0.5
v 0.2 2.4 0.4
v 0.2 2.4 0.2
v 0.2 2.4 0.1
v 0.2 2.4 0
v 0.2 2.7 0.5
v 0.2 2.7 0.4
v 0.2 2.7 0.2
v 0.2 2.7 0.1
v 0.2 2.7 0
v 0.2 2.8 0.5
v 0.2 2.8 0.4
v 0.2 2.9 0.5
v 0.2 2.9 0.4
v 0.3 0 0.2
v 0.3 0 -0.1
v 0.3 0.1 0.2
v 0.3 0.1 0.1
v 0.3 0.6 -0.1
v 0.3 0.6 -0.2
v 0.3 0.7 0.1
v 0.3 0.7 -0.1
v 0.3 1.4 0
v 0.3 1.4 -0.1
v 0.3 1.4 -0.2
v 0.3 1.5 0.1
v 0.3 1.5 0
v 0.3 1.9 0.1
v 0.3 1.9 -0.1
v 0.3 2.2 0.4
v 0.3 2.2 -0.2
v 0.3 2.3 0.4
v 0.3 2.3 0.3
v 0.3 2.3 0.2
v 0.3 2.3 0.1
v 0.3 2.3 0
v 0.3 2.3 -0.1
v 0.3 2.3 -0.2
v 0.3 2.4 0.3
v 0.3 2.4 0.2
v 0.3 2.4 0.1
v 0.3 2.4 0
v 0.3 2.4 -0.1
v 0.3 2.4 -0.2
v 0.3 2.7 0.3
v 0.3 2.7 0.2
v 0.3 2.7 0.1
v 0.3 2.7 0
v 0.3 2.7 -0.1
v 0.3 2.7 -0.2
v 0.3 2.8 0.4
v 0.3 2.8 0.3
v 0.3 2.8 0.2
v 0.3 2.8 0.1
v 0.3 2.8 0
v 0.3 2.8 -0.1
v 0.3 2.8 -0.2
v 0.3 2.9 0.4
v 0.3 2.9 -0.2
v 0.4 0.7 0.1
v 0.4 0.7 -0.1
v 0.4 1 0.2
v 0.4 1 0.1
v 0.4 1.4 0
v 0.4 1.4 -0.1
v 0.4 1.5 0.2
v 0.4 1.5 0
v 0.9 1.4 0
v 0.9 1.4 -0.1
v 0.9 1.9 0
v 0.9 1.9 -0.1
v 0.9 2.1 0
v 0.9 2.1 -0.1
v 0.9 2.3 0
v 0.9 2.3 -0.1
v 0.9 2.4 0
v 0.9 2.4 -0.1
v 1 1.9 0.1
v 1 1.9 -0.1
v 1 2.1 0.1
v 1 2.1 -0.1
v -0.3 2.2 0.5
v -0.3 2.3 0.5
v -0.3 2.4 0.5
v -0.3 2.7 0.5
v -0.3 2.8 0.5
v -0.3 2.9 0.5
v -0.2 2.3 0.5
v -0.2 2.4 0.5
v -0.2 2.7 0.5
v -0.2 2.8 0.5
v -0.1 2.3 0.5
v -0.1 2.4 0.5
v -0.1 2.7 0.5
v -0.1 2.8 0.5
v 0 2.3 0.5
v 0 2.4 0.5
v 0 2.7 0.5
v 0 2.8 0.5
v 0.1 2.3 0.5
v 0.1 2.4 0.5
v 0.1 2.7 0.5
v 0.1 2.8 0.5
v 0.2 2.2 0.5
v 0.2 2.3 0.5
v 0.2 2.4 0.5
v 0.2 2.7 0.5
v 0.2 2.8 0.5
v 0.2 2.9 0.5
v -0.4 2.2 0.4
v -0.4 2.3 0.4
v -0.4 2.8 0.4
v -0.4 2.9 0.4
v -0.3 2.2 0.4
v -0.3 2.3 0.4
v -0.3 2.8 0.4
v -0.3 2.9 0.4
v 0.2 2.2 0.4
v 0.2 2.3 0.4
v 0.2 2.8 0.4
v 0.2 2.9 0.4
v 0.3 2.2 0.4
v 0.3 2.3 0.4
v 0.3 2.8 0.4
v 0.3 2.9 0.4
v -0.4 2.3 0.3
v -0.4 2.4 0.3
v -0.4 2.7 0.3
v -0.4 2.8 0.3
v -0.3 2.3 0.3
v -0.3 2.4 0.3
v -0.3 2.7 0.3
v -0.3 2.8 0.3
v 0.2 2.3 0.3
v 0.2 2.4 0.3
v 0.2 2.7 0.3
v 0.2 2.8 0.3
v 0.3 2.3 0.3
v 0.3 2.4 0.3
v 0.3 2.7 0.3
v 0.3 2.8 0.3
v -0.5 1 0.2
v -0.5 1.5 0.2
v -0.4 0 0.2
v -0.4 0.1 0.2
v -0.3 1.4 0.2
v -0.3 1.5 0.2
v -0.3 2.4 0.2
v -0.3 2.7 0.2
v -0.2 0 0.2
v -0.2 0.1 0.2
v -0.2 1 0.2
v -0.2 1.4 0.2
v -0.2 2.4 0.2
v -0.2 2.6 0.2
v -0.1 2.4 0.2
v -0.1 2.6 0.2
v -0.1 2.7 0.2
v 0 2.4 0.2
v 0 2.6 0.2
v 0 2.7 0.2
v 0.1 0 0.2
v 0.1 0.1 0.2
v 0.1 1 0.2
v 0.1 1.4 0.2
v 0.1 2.4 0.2
v 0.1 2.6 0.2
v 0.2 1.4 0.2
v 0.2 1.5 0.2
v 0.2 2.4 0.2
v 0.2 2.7 0.2
v 0.3 0 0.2
v 0.3 0.1 0.2
v 0.4 1 0.2
v 0.4 1.5 0.2
v -1.1 1.9 0.1
v -1.1 2.1 0.1
v -0.9 1.9 0.1
v -0.9 2.1 0.1
v -0.5 0.7 0.1
v -0.5 1 0.1
v -0.4 0.1 0.1
v -0.4 0.7 0.1
v -0.4 1 0.1
v -0.4 1.5 0.1
v -0.4 1.9 0.1
v -0.4 2.3 0.1
v -0.4 2.4 0.1
v -0.4 2.7 0.1
v -0.4 2.8 0.1
v -0.3 1.4 0.1
v -0.3 1.5 0.1
v -0.3 2.3 0.1
v -0.3 2.4 0.1
v -0.3 2.7 0.1
v -0.3 2.8 0.1
v -0.2 0.1 0.1
v -0.2 1 0.1
v -0.2 1.4 0.1
v -0.2 2 0.1
v -0.2 2.1 0.1
v -0.1 1.4 0.1
v -0.1 1.5 0.1
v -0.1 1.7 0.1
v -0.1 1.8 0.1
v -0.1 1.9 0.1
v -0.1 2 0.1
v 0 1.4 0.1
v 0 1.5 0.1
v 0 1.7 0.1
v 0 1.8 0.1
v 0 1.9 0.1
v 0 2 0.1
v 0.1 0.1 0.1
v 0.1 1 0.1
v 0.1 1.4 0.1
v 0.1 2 0.1
v 0.1 2.1 0.1
v 0.2 1.4 0.1
v 0.2 1.5 0.1
v 0.2 2.3 0.1
v 0.2 2.4 0.1
v 0.2 2.7 0.1
v 0.2 2.8 0.1
v 0.3 0.1 0.1
v 0.3 0.7 0.1
v 0.3 1 0.1
v 0.3 1.5 0.1
v 0.3 1.9 0.1
v 0.3 2.3 0.1
v 0.3 2.4 0.1
v 0.3 2.7 0.1
v 0.3 2.8 0.1
v 0.4 0.7 0.1
v 0.4 1 0.1
v 0.8 1.9 0.1
v 0.8 2.1 0.1
v 1 1.9 0.1
v 1 2.1 0.1
v -0.5 3 0
v -0.5 3.1 0
v -0.1 3 0
v -0.1 3.1 0
v 0.8 1.4 0
v 0.8 1.9 0
v 0.8 2.1 0
v 0.8 2.3 0
v 0.8 2.4 0
v 0.9 1.4 0
v 0.9 1.9 0
v 0.9 2.1 0
v 0.9 2.3 0
v 0.9 2.4 0
v -0.4 2.3 -0.1
v -0.4 2.4 -0.1
v -0.4 2.7 -0.1
v -0.4 2.8 -0.1
v -0.4 3.1 -0.1
v -0.4 3.2 -0.1
v -0.4 3.4 -0.1
v -0.3 2.3 -0.1
v -0.3 2.4 -0.1
v -0.3 2.7 -0.1
v -0.3 2.8 -0.1
v -0.2 0.6 -0.1
v -0.2 1 -0.1
v -0.2 3.1 -0.1
v -0.2 3.2 -0.1
v -0.2 3.4 -0.1
v 0.1 0.6 -0.1
v 0.1 1 -0.1
v 0.2 2.3 -0.1
v 0.2 2.4 -0.1
v 0.2 2.7 -0.1
v 0.2 2.8 -0.1
v 0.3 2.3 -0.1
v 0.3 2.4 -0.1
v 0.3 2.7 -0.1
v 0.3 2.8 -0.1
v -0.3 2.3 0.4
v -0.3 2.4 0.4
v -0.3 2.7 0.4
v -0.3 2.8 0.4
v -0.2 2.3 0.4
v -0.2 2.4 0.4
v -0.2 2.7 0.4
v -0.2 2.8 0.4
v -0.1 2.3 0.4
v -0.1 2.4 0.4
v -0.1 2.7 0.4
v -0.1 2.8 0.4
v 0 2.3 0.4
v 0 2.4 0.4
v 0 2.7 0.4
v 0 2.8 0.4
v 0.1 2.3 0.4
v 0.1 2.4 0.4
v 0.1 2.7 0.4
v 0.1 2.8 0.4
v 0.2 2.3 0.4
v 0.2 2.4 0.4
v 0.2 2.7 0.4
v 0.2 2.8 0.4
v -0.4 2.3 0.2
v -0.4 2.4 0.2
v -0.4 2.7 0.2
v -0.4 2.8 0.2
v -0.3 2.3 0.2
v -0.3 2.4 0.2
v -0.3 2.7 0.2
v -0.3 2.8 0.2
v 0.2 2.3 0.2
v 0.2 2.4 0.2
v 0.2 2.7 0.2
v 0.2 2.8 0.2
v 0.3 2.3 0.2
v 0.3 2.4 0.2
v 0.3 2.7 0.2
v 0.3 2.8 0.2
v -0.5 1.4 0
v -0.5 1.5 0
v -0.4 1.4 0
v -0.4 1.5 0
v -0.4 2.3 0
v -0.4 2.4 0
v -0.4 2.7 0
v -0.4 2.8 0
v -0.3 2.3 0
v -0.3 2.4 0
v -0.3 2.7 0
v -0.3 2.8 0
v -0.1 2.4 0
v -0.1 2.7 0
v 0 2.4 0
v 0 2.7 0
v 0.2 2.3 0
v 0.2 2.4 0
v 0.2 2.7 0
v 0.2 2.8 0
v 0.3 1.4 0
v 0.3 1.5 0
v 0.3 2.3 0
v 0.3 2.4 0
v 0.3 2.7 0
v 0.3 2.8 0
v 0.4 1.4 0
v 0.4 1.5 0
v -1.1 1.9 -0.1
v -1.1 2.1 -0.1
v -0.9 1.9 -0.1
v -0.9 2.1 -0.1
v -0.5 0.7 -0.1
v -0.5 1.4 -0.1
v -0.4 0 -0.1
v -0.4 0.6 -0.1
v -0.4 0.7 -0.1
v -0.4 1.4 -0.1
v -0.4 1.9 -0.1
v -0.3 1.4 -0.1
v -0.3 1.8 -0.1
v -0.2 0 -0.1
v -0.2 0.6 -0.1
v -0.2 1.8 -0.1
v -0.2 2 -0.1
v 0.1 0 -0.1
v 0.1 0.6 -0.1
v 0.1 1.8 -0.1
v 0.1 2 -0.1
v 0.2 1.4 -0.1
v 0.2 1.8 -0.1
v 0.3 0 -0.1
v 0.3 0.6 -0.1
v 0.3 0.7 -0.1
v 0.3 1.4 -0.1
v 0.3 1.9 -0.1
v 0.4 0.7 -0.1
v 0.4 1.4 -0.1
v 0.8 1.4 -0.1
v 0.8 1.9 -0.1
v 0.8 2.1 -0.1
v 0.8 2.3 -0.1
v 0.8 2.4 -0.1
v 0.9 1.4 -0.1
v 0.9 1.9 -0.1
v 0.9 2.1 -0.1
v 0.9 2.3 -0.1
v 0.9 2.4 -0.1
v 1 1.9 -0.1
v 1 2.1 -0.1
v -0.4 0.6 -0.2
v -0.4 1.4 -0.2
v -0.4 2.2 -0.2
v -0.4 2.3 -0.2
v -0.4 2.4 -0.2
v -0.4 2.7 -0.2
v -0.4 2.8 -0.2
v -0.4 2.9 -0.2
v -0.3 1.4 -0.2
v -0.3 1.8 -0.2
v -0.3 2.3 -0.2
v -0.3 2.4 -0.2
v -0.3 2.7 -0.2
v -0.3 2.8 -0.2
v -0.2 1.8 -0.2
v -0.2 2 -0.2
v 0.1 1.8 -0.2
v 0.1 2 -0.2
v 0.2 1.4 -0.2
v 0.2 1.8 -0.2
v 0.2 2.3 -0.2
v 0.2 2.4 -0.2
v 0.2 2.7 -0.2
v 0.2 2.8 -0.2
v 0.3 0.6 -0.2
v 0.3 1.4 -0.2
v 0.3 2.2 -0.2
v 0.3 2.3 -0.2
v 0.3 2.4 -0.2
v 0.3 2.7 -0.2
v 0.3 2.8 -0.2
v 0.3 2.9 -0.2
v -0.4 3.1 -0.3
v -0.4 3.2 -0.3
v -0.4 3.4 -0.3
v -0.2 3.1 -0.3
v -0.2 3.2 -0.3
v -0.2 3.4 -0.3
v -0.5 3 -0.4
v -0.5 3.1 -0.4
v -0.1 3 -0.4
v -0.1 3.1 -0.4
v -0.4 0 0.2
v -0.2 0 0.2
v 0.1 0 0.2
v 0.3 0 0.2
v -0.4 0 -0.1
v -0.2 0 -0.1
v 0.1 0 -0.1
v 0.3 0 -0.1
v -0.4 0.6 -0.1
v -0.2 0.6 -0.1
v 0.1 0.6 -0.1
v 0.3 0.6 -0.1
v -0.4 0.6 -0.2
v 0.3 0.6 -0.2
v -0.5 0.7 0.1
v -0.4 0.7 0.1
v 0.3 0.7 0.1
v 0.4 0.7 0.1
v -0.5 0.7 -0.1
v -0.4 0.7 -0.1
v 0.3 0.7 -0.1
v 0.4 0.7 -0.1
v -0.5 1 0.2
v -0.2 1 0.2
v 0.1 1 0.2
v 0.4 1 0.2
v -0.5 1 0.1
v -0.4 1 0.1
v -0.2 1 0.1
v 0.1 1 0.1
v 0.3 1 0.1
v 0.4 1 0.1
v -0.2 1 -0.1
v 0.1 1 -0.1
v 0.8 1.4 0
v 0.9 1.4 0
v 0.8 1.4 -0.1
v 0.9 1.4 -0.1
v -1.1 1.9 0.1
v -0.9 1.9 0.1
v -0.4 1.9 0.1
v 0.3 1.9 0.1
v 0.8 1.9 0.1
v 1 1.9 0.1
v 0.8 1.9 0
v 0.9 1.9 0
v -1.1 1.9 -0.1
v -0.9 1.9 -0.1
v -0.4 1.9 -0.1
v 0.3 1.9 -0.1
v 0.8 1.9 -0.1
v 0.9 1.9 -0.1
v 1 1.9 -0.1
v -0.3 2.2 0.5
v 0.2 2.2 0.5
v -0.4 2.2 0.4
v -0.3 2.2 0.4
v 0.2 2.2 0.4
v 0.3 2.2 0.4
v -0.4 2.2 -0.2
v 0.3 2.2 -0.2
v -0.3 2.4 0.2
v -0.2 2.4 0.2
v -0.1 2.4 0.2
v 0 2.4 0.2
v 0.1 2.4 0.2
v 0.2 2.4 0.2
v -0.3 2.4 0.1
v -0.2 2.4 0.1
v -0.1 2.4 0.1
v 0 2.4 0.1
v 0.1 2.4 0.1
v 0.2 2.4 0.1
v -0.3 2.4 0
v -0.1 2.4 0
v 0 2.4 0
v 0.2 2.4 0
v -0.3 2.7 0.5
v -0.2 2.7 0.5
v -0.1 2.7 0.5
v 0 2.7 0.5
v 0.1 2.7 0.5
v 0.2 2.7 0.5
v -0.3 2.7 0.4
v -0.2 2.7 0.4
v -0.1 2.7 0.4
v 0 2.7 0.4
v 0.1 2.7 0.4
v 0.2 2.7 0.4
v -0.4 2.7 0.3
v -0.3 2.7 0.3
v 0.2 2.7 0.3
v 0.3 2.7 0.3
v -0.4 2.7 0.2
v -0.3 2.7 0.2
v 0.2 2.7 0.2
v 0.3 2.7 0.2
v -0.4 2.7 0.1
v -0.3 2.7 0.1
v 0.2 2.7 0.1
v 0.3 2.7 0.1
v -0.4 2.7 0
v -0.3 2.7 0
v 0.2 2.7 0
v 0.3 2.7 0
v -0.4 2.7 -0.1
v -0.3 2.7 -0.1
v 0.2 2.7 -0.1
v 0.3 2.7 -0.1
v -0.4 2.7 -0.2
v -0.3 2.7 -0.2
v 0.2 2.7 -0.2
v 0.3 2.7 -0.2
v -0.2 2.8 0.5
v -0.1 2.8 0.5
v 0 2.8 0.5
v 0.1 2.8 0.5
v -0.4 2.8 0.4
v -0.3 2.8 0.4
v -0.2 2.8 0.4
v -0.1 2.8 0.4
v 0 2.8 0.4
v 0.1 2.8 0.4
v 0.2 2.8 0.4
v 0.3 2.8 0.4
v -0.4 2.8 0.3
v -0.3 2.8 0.3
v 0.2 2.8 0.3
v 0.3 2.8 0.3
v -0.4 2.8 0.2
v -0.3 2.8 0.2
v 0.2 2.8 0.2
v 0.3 2.8 0.2
v -0.4 2.8 0.1
v -0.3 2.8 0.1
v 0.2 2.8 0.1
v 0.3 2.8 0.1
v -0.4 2.8 0
v -0.3 2.8 0
v 0.2 2.8 0
v 0.3 2.8 0
v -0.4 2.8 -0.1
v -0.3 2.8 -0.1
v 0.2 2.8 -0.1
v 0.3 2.8 -0.1
v -0.3 2.8 -0.2
v 0.2 2.8 -0.2
v -0.5 3 0
v -0.1 3 0
v -0.5 3 -0.4
v -0.1 3 -0.4
v -0.4 0.1 0.2
v -0.2 0.1 0.2
v 0.1 0.1 0.2
v 0.3 0.1 0.2
v -0.4 0.1 0.1
v -0.2 0.1 0.1
v 0.1 0.1 0.1
v 0.3 0.1 0.1
v -0.3 1.4 0.2
v -0.2 1.4 0.2
v 0.1 1.4 0.2
v 0.2 1.4 0.2
v -0.3 1.4 0.1
v -0.2 1.4 0.1
v 0.1 1.4 0.1
v 0.2 1.4 0.1
v -0.5 1.4 0
v -0.4 1.4 0
v 0.3 1.4 0
v 0.4 1.4 0
v -0.5 1.4 -0.1
v -0.4 1.4 -0.1
v -0.3 1.4 -0.1
v 0.2 1.4 -0.1
v 0.3 1.4 -0.1
v 0.4 1.4 -0.1
v -0.4 1.4 -0.2
v -0.3 1.4 -0.2
v 0.2 1.4 -0.2
v 0.3 1.4 -0.2
v -0.5 1.5 0.2
v -0.3 1.5 0.2
v 0.2 1.5 0.2
v 0.4 1.5 0.2
v -0.4 1.5 0.1
v -0.3 1.5 0.1
v 0.2 1.5 0.1
v 0.3 1.5 0.1
v -0.5 1.5 0
v -0.4 1.5 0
v 0.3 1.5 0
v 0.4 1.5 0
v -0.3 1.8 -0.1
v -0.2 1.8 -0.1
v 0.1 1.8 -0.1
v 0.2 1.8 -0.1
v -0.3 1.8 -0.2
v -0.2 1.8 -0.2
v 0.1 1.8 -0.2
v 0.2 1.8 -0.2
v -0.2 2 -0.1
v 0.1 2 -0.1
v -0.2 2 -0.2
v 0.1 2 -0.2
v -1.1 2.1 0.1
v -0.9 2.1 0.1
v -0.2 2.1 0.1
v 0.1 2.1 0.1
v 0.8 2.1 0.1
v 1 2.1 0.1
v -0.2 2.1 0
v 0.1 2.1 0
v 0.8 2.1 0
v 0.9 2.1 0
v -1.1 2.1 -0.1
v -0.9 2.1 -0.1
v 0.8 2.1 -0.1
v 0.9 2.1 -0.1
v 1 2.1 -0.1
v -0.2 2.3 0.5
v -0.1 2.3 0.5
v 0 2.3 0.5
v 0.1 2.3 0.5
v -0.4 2.3 0.4
v -0.3 2.3 0.4
v -0.2 2.3 0.4
v -0.1 2.3 0.4
v 0 2.3 0.4
v 0.1 2.3 0.4
v 0.2 2.3 0.4
v 0.3 2.3 0.4
v -0.4 2.3 0.3
v -0.3 2.3 0.3
v 0.2 2.3 0.3
v 0.3 2.3 0.3
v -0.4 2.3 0.2
v -0.3 2.3 0.2
v 0.2 2.3 0.2
v 0.3 2.3 0.2
v -0.4 2.3 0.1
v -0.3 2.3 0.1
v 0.2 2.3 0.1
v 0.3 2.3 0.1
v -0.4 2.3 0
v -0.3 2.3 0
v 0.2 2.3 0
v 0.3 2.3 0
v -0.4 2.3 -0.1
v -0.3 2.3 -0.1
v 0.2 2.3 -0.1
v 0.3 2.3 -0.1
v -0.3 2.3 -0.2
v 0.2 2.3 -0.2
v -0.3 2.4 0.5
v -0.2 2.4 0.5
v -0.1 2.4 0.5
v 0 2.4 0.5
v 0.1 2.4 0.5
v 0.2 2.4 0.5
v -0.3 2.4 0.4
v -0.2 2.4 0.4
v -0.1 2.4 0.4
v 0 2.4 0.4
v 0.1 2.4 0.4
v 0.2 2.4 0.4
v -0.4 2.4 0.3
v -0.3 2.4 0.3
v 0.2 2.4 0.3
v 0.3 2.4 0.3
v -0.4 2.4 0.2
v -0.3 2.4 0.2
v 0.2 2.4 0.2
v 0.3 2.4 0.2
v -0.4 2.4 0.1
v -0.3 2.4 0.1
v 0.2 2.4 0.1
v 0.3 2.4 0.1
v -0.4 2.4 0
v -0.3 2.4 0
v 0.2 2.4 0
v 0.3 2.4 0
v 0.8 2.4 0
v 0.9 2.4 0
v -0.4 2.4 -0.1
v -0.3 2.4 -0.1
v 0.2 2.4 -0.1
v 0.3 2.4 -0.1
v 0.8 2.4 -0.1
v 0.9 2.4 -0.1
v -0.4 2.4 -0.2
v -0.3 2.4 -0.2
v 0.2 2.4 -0.2
v 0.3 2.4 -0.2
v -0.3 2.7 0.2
v -0.1 2.7 0.2
v 0 2.7 0.2
v 0.2 2.7 0.2
v -0.3 2.7 0.1
v 0.2 2.7 0.1
v -0.3 2.7 0
v -0.1 2.7 0
v 0 2.7 0
v 0.2 2.7 0
v -0.3 2.9 0.5
v 0.2 2.9 0.5
v -0.4 2.9 0.4
v -0.3 2.9 0.4
v 0.2 2.9 0.4
v 0.3 2.9 0.4
v -0.4 2.9 -0.2
v 0.3 2.9 -0.2
v -0.5 3.1 0
v -0.1 3.1 0
v -0.4 3.1 -0.1
v -0.2 3.1 -0.1
v -0.4 3.1 -0.3
v -0.2 3.1 -0.3
v -0.5 3.1 -0.4
v -0.1 3.1 -0.4
v -0.4 3.4 -0.1
v -0.2 3.4 -0.1
v -0.4 3.4 -0.3
v -0.2 3.4 -0.3

# faces
f 3/7/1 2/7/1 1/7/1
f 4/7/1 2/7/1 3/7/1
f 8/4/1 6/4/1 5/4/1
f 9/4/1 6/4/1 8/4/1
f 9/4/1 8/4/1 7/4/1
f 10/4/1 6/4/1 9/4/1
f 11/4/1 9/4/1 7/4/1
f 12/4/1 9/4/1 11/4/1
f 15/8/1 14/8/1 13/8/1
f 16/8/1 14/8/1 15/8/1
f 19/8/1 18/8/1 17/8/1
f 20/8/1 18/8/1 19/8/1
f 21/8/1 18/8/1 20/8/1
f 23/8/1 21/8/1 20/8/1
f 24/4/1 22/4/1 21/4/1
f 24/8/1 21/8/1 23/8/1
f 26/4/1 22/4/1 24/4/1
f 27/4/1 22/4/1 26/4/1
f 29/4/1 26/4/1 25/4/1
f 30/4/1 29/4/1 28/4/1
f 31/4/1 26/4/1 29/4/1
f 31/4/1 29/4/1 30/4/1
f 34/3/1 33/3/1 32/3/1
f 35/3/1 33/3/1 34/3/1
f 36/3/1 33/3/1 35/3/1
f 37/3/1 33/3/1 36/3/1
f 38/3/1 33/3/1 37/3/1
f 39/3/1 33/3/1 38/3/1
f 40/3/1 33/3/1 39/3/1
f 41/7/1 36/7/1 35/7/1
f 42/7/1 36/7/1 41/7/1
f 43/7/1 38/7/1 37/7/1
f 44/7/1 38/7/1 43/7/1
f 45/7/1 40/7/1 39/7/1
f 46/7/1 40/7/1 45/7/1
f 54/7/1 48/7/1 47/7/1
f 55/7/1 48/7/1 54/7/1
f 56/7/1 50/7/1 49/7/1
f 57/7/1 50/7/1 56/7/1
f 58/7/1 52/7/1 51/7/1
f 59/7/1 52/7/1 58/7/1
f 60/3/1 57/3/1 56/3/1
f 60/3/1 55/3/1 54/3/1
f 60/3/1 59/3/1 58/3/1
f 60/3/1 58/3/1 57/3/1
f 60/3/1 54/3/1 53/3/1
f 60/3/1 56/3/1 55/3/1
f 61/3/1 59/3/1 60/3/1
f 64/2/1 63/2/1 62/2/1
f 65/2/1 63/2/1 64/2/1
f 66/8/1 65/8/1 64/8/1
f 67/8/1 65/8/1 66/8/1
f 70/4/1 69/4/1 68/4/1
f 71/4/1 69/4/1 70/4/1
f 74/3/1 73/3/1 72/3/1
f 75/3/1 73/3/1 74/3/1
f 76/7/1 75/7/1 74/7/1
f 77/7/1 75/7/1 76/7/1
f 83/7/1 80/7/1 79/7/1
f 83/7/1 79/7/1 78/7/1
f 84/7/1 80/7/1 83/7/1
f 85/7/1 80/7/1 84/7/1
f 86/7/1 82/7/1 81/7/1
f 87/7/1 82/7/1 86/7/1
f 88/3/1 87/3/1 86/3/1
f 89/3/1 87/3/1 88/3/1
f 92/4/1 91/4/1 90/4/1
f 93/4/1 91/4/1 92/4/1
f 96/7/1 95/7/1 94/7/1
f 97/7/1 95/7/1 96/7/1
f 100/7/1 99/7/1 98/7/1
f 101/7/1 99/7/1 100/7/1
f 105/6/1 103/6/1 102/6/1
f 106/7/1 104/7/1 103/7/1
f 106/6/1 103/6/1 105/6/1
f 107/7/1 106/7/1 105/7/1
f 108/7/1 104/7/1 106/7/1
f 108/7/1 106/7/1 107/7/1
f 111/8/1 110/8/1 109/8/1
f 112/8/1 110/8/1 111/8/1
f 113/8/1 110/8/1 112/8/1
f 115/8/1 113/8/1 112/8/1
f 116/8/1 113/8/1 115/8/1
f 117/4/1 115/4/1 114/4/1
f 118/4/1 115/4/1 117/4/1
f 121/7/1 120/7/1 119/7/1
f 122/7/1 120/7/1 121/7/1
f 125/7/1 124/7/1 123/7/1
f 126/7/1 124/7/1 125/7/1
f 129/4/1 128/4/1 127/4/1
f 130/4/1 128/4/1 129/4/1
f 137/7/1 132/7/1 131/7/1
f 138/7/1 132/7/1 137/7/1
f 139/7/1 134/7/1 133/7/1
f 140/7/1 134/7/1 139/7/1
f 141/7/1 136/7/1 135/7/1
f 142/7/1 136/7/1 141/7/1
f 149/7/1 144/7/1 143/7/1
f 150/7/1 144/7/1 149/7/1
f 151/7/1 146/7/1 145/7/1
f 152/7/1 146/7/1 151/7/1
f 153/7/1 148/7/1 147/7/1
f 154/7/1 148/7/1 153/7/1
f 157/8/1 156/8/1 155/8/1
f 158/8/1 156/8/1 157/8/1
f 161/8/1 160/8/1 159/8/1
f 162/8/1 160/8/1 161/8/1
f 163/1/1 162/1/1 161/1/1
f 164/1/1 162/1/1 163/1/1
f 165/4/2 166/4/2 167/4/2
f 167/4/2 166/4/2 168/4/2
f 169/7/2 170/7/2 175/7/2
f 175/7/2 170/7/2 176/7/2
f 171/7/2 172/7/2 177/7/2
f 177/7/2 172/7/2 178/7/2
f 173/7/2 174/7/2 179/7/2
f 179/7/2 174/7/2 180/7/2
f 181/7/2 182/7/2 187/7/2
f 187/7/2 182/7/2 188/7/2
f 183/7/2 184/7/2 189/7/2
f 189/7/2 184/7/2 190/7/2
f 185/7/2 186/7/2 191/7/2
f 191/7/2 186/7/2 192/7/2
f 193/8/2 194/8/2 195/8/2
f 195/8/2 194/8/2 196/8/2
f 196/8/2 194/8/2 197/8/2
f 196/8/2 197/8/2 199/8/2
f 199/8/2 197/8/2 200/8/2
f 198/4/2 199/4/2 201/4/2
f 201/4/2 199/4/2 202/4/2
f 203/7/2 204/7/2 205/7/2
f 205/7/2 204/7/2 206/7/2
f 207/7/2 208/7/2 209/7/2
f 209/7/2 208/7/2 210/7/2
f 211/2/2 212/2/2 213/2/2
f 213/2/2 212/2/2 214/2/2
f 213/8/2 214/8/2 215/8/2
f 215/8/2 214/8/2 216/8/2
f 217/5/2 218/5/2 220/5/2
f 218/7/2 219/7/2 221/7/2
f 220/5/2 218/5/2 221/5/2
f 220/7/2 221/7/2 222/7/2
f 221/7/2 219/7/2 223/7/2
f 222/7/2 221/7/2 223/7/2
f 224/8/2 225/8/2 226/8/2
f 226/8/2 225/8/2 227/8/2
f 228/7/2 229/7/2 230/7/2
f 230/7/2 229/7/2 231/7/2
f 232/7/2 233/7/2 234/7/2
f 234/7/2 233/7/2 235/7/2
f 236/4/2 237/4/2 238/4/2
f 238/4/2 237/4/2 239/4/2
f 240/4/2 241/4/2 242/4/2
f 242/4/2 241/4/2 243/4/2
f 244/3/2 245/3/2 246/3/2
f 246/3/2 245/3/2 247/3/2
f 246/7/2 247/7/2 248/7/2
f 248/7/2 247/7/2 249/7/2
f 251/7/2 252/7/2 255/7/2
f 250/7/2 251/7/2 255/7/2
f 255/7/2 252/7/2 256/7/2
f 256/7/2 252/7/2 257/7/2
f 253/7/2 254/7/2 258/7/2
f 258/7/2 254/7/2 259/7/2
f 258/3/2 259/3/2 260/3/2
f 260/3/2 259/3/2 261/3/2
f 262/8/2 263/8/2 264/8/2
f 264/8/2 263/8/2 265/8/2
f 265/8/2 263/8/2 266/8/2
f 265/8/2 266/8/2 268/8/2
f 266/4/2 267/4/2 269/4/2
f 268/8/2 266/8/2 269/8/2
f 269/4/2 267/4/2 271/4/2
f 271/4/2 267/4/2 272/4/2
f 270/4/2 271/4/2 274/4/2
f 273/4/2 274/4/2 275/4/2
f 274/4/2 271/4/2 276/4/2
f 275/4/2 274/4/2 276/4/2
f 277/3/2 278/3/2 279/3/2
f 279/3/2 278/3/2 280/3/2
f 280/3/2 278/3/2 281/3/2
f 281/3/2 278/3/2 282/3/2
f 282/3/2 278/3/2 283/3/2
f 283/3/2 278/3/2 284/3/2
f 284/3/2 278/3/2 285/3/2
f 280/7/2 281/7/2 286/7/2
f 286/7/2 281/7/2 287/7/2
f 282/7/2 283/7/2 288/7/2
f 288/7/2 283/7/2 289/7/2
f 284/7/2 285/7/2 290/7/2
f 290/7/2 285/7/2 291/7/2
f 292/7/2 293/7/2 299/7/2
f 299/7/2 293/7/2 300/7/2
f 294/7/2 295/7/2 301/7/2
f 301/7/2 295/7/2 302/7/2
f 296/7/2 297/7/2 303/7/2
f 303/7/2 297/7/2 304/7/2
f 301/3/2 302/3/2 305/3/2
f 299/3/2 300/3/2 305/3/2
f 303/3/2 304/3/2 305/3/2
f 302/3/2 303/3/2 305/3/2
f 298/3/2 299/3/2 305/3/2
f 300/3/2 301/3/2 305/3/2
f 305/3/2 304/3/2 306/3/2
f 307/4/2 308/4/2 310/4/2
f 310/4/2 308/4/2 311/4/2
f 309/4/2 310/4/2 311/4/2
f 311/4/2 308/4/2 312/4/2
f 309/4/2 311/4/2 313/4/2
f 313/4/2 311/4/2 314/4/2
f 315/8/2 316/8/2 317/8/2
f 317/8/2 316/8/2 318/8/2
f 319/8/2 320/8/2 321/8/2
f 321/8/2 320/8/2 322/8/2
f 321/1/2 322/1/2 323/1/2
f 323/1/2 322/1/2 324/1/2
f 325/7/2 326/7/2 327/7/2
f 327/7/2 326/7/2 328/7/2
f 335/3/3 330/3/3 329/3/3
f 335/7/3 331/7/3 330/7/3
f 336/7/3 331/7/3 335/7/3
f 337/7/3 333/7/3 332/7/3
f 338/3/3 334/3/3 333/3/3
f 338/7/3 333/7/3 337/7/3
f 339/3/3 335/3/3 329/3/3
f 342/3/3 334/3/3 338/3/3
f 343/7/3 340/7/3 339/7/3
f 343/3/3 339/3/3 329/3/3
f 344/7/3 340/7/3 343/7/3
f 345/7/3 342/7/3 341/7/3
f 346/3/3 334/3/3 342/3/3
f 346/7/3 342/7/3 345/7/3
f 347/3/3 343/3/3 329/3/3
f 350/3/3 334/3/3 346/3/3
f 351/3/3 347/3/3 329/3/3
f 352/7/3 348/7/3 347/7/3
f 352/3/3 347/3/3 351/3/3
f 353/7/3 348/7/3 352/7/3
f 354/7/3 350/7/3 349/7/3
f 355/3/3 334/3/3 350/3/3
f 355/7/3 350/7/3 354/7/3
f 356/3/3 334/3/3 355/3/3
f 361/3/3 358/3/3 357/3/3
f 362/3/3 358/3/3 361/3/3
f 363/3/3 360/3/3 359/3/3
f 364/3/3 360/3/3 363/3/3
f 369/3/3 366/3/3 365/3/3
f 370/3/3 366/3/3 369/3/3
f 371/3/3 368/3/3 367/3/3
f 372/3/3 368/3/3 371/3/3
f 377/7/3 374/7/3 373/7/3
f 378/7/3 374/7/3 377/7/3
f 379/7/3 376/7/3 375/7/3
f 380/7/3 376/7/3 379/7/3
f 385/7/3 382/7/3 381/7/3
f 386/7/3 382/7/3 385/7/3
f 387/7/3 384/7/3 383/7/3
f 388/7/3 384/7/3 387/7/3
f 393/4/3 390/4/3 389/4/3
f 394/4/3 390/4/3 393/4/3
f 397/8/3 392/8/3 391/8/3
f 398/8/3 392/8/3 397/8/3
f 399/4/3 393/4/3 389/4/3
f 400/4/3 393/4/3 399/4/3
f 401/7/3 396/7/3 395/7/3
f 402/7/3 396/7/3 401/7/3
f 403/5/3 402/5/3 401/5/3
f 404/7/3 396/7/3 402/7/3
f 404/5/3 402/5/3 403/5/3
f 405/7/3 396/7/3 404/7/3
f 413/6/3 407/6/3 406/6/3
f 414/7/3 408/7/3 407/7/3
f 414/6/3 407/6/3 413/6/3
f 415/4/3 412/4/3 411/4/3
f 417/7/3 414/7/3 413/7/3
f 418/7/3 408/7/3 414/7/3
f 418/7/3 414/7/3 417/7/3
f 419/8/3 410/8/3 409/8/3
f 420/8/3 410/8/3 419/8/3
f 421/4/3 416/4/3 415/4/3
f 421/4/3 415/4/3 411/4/3
f 422/4/3 416/4/3 421/4/3
f 425/7/3 424/7/3 423/7/3
f 426/7/3 424/7/3 425/7/3
f 430/4/3 428/4/3 427/4/3
f 431/4/3 428/4/3 430/4/3
f 433/4/3 426/4/3 425/4/3
f 439/4/3 433/4/3 432/4/3
f 440/7/3 435/7/3 434/7/3
f 441/7/3 435/7/3 440/7/3
f 442/7/3 437/7/3 436/7/3
f 443/7/3 437/7/3 442/7/3
f 444/8/3 431/8/3 430/8/3
f 444/8/3 430/8/3 429/8/3
f 445/8/3 431/8/3 444/8/3
f 446/4/3 439/4/3 438/4/3
f 447/4/3 426/4/3 433/4/3
f 447/4/3 433/4/3 439/4/3
f 447/4/3 439/4/3 446/4/3
f 448/4/3 426/4/3 447/4/3
f 449/4/3 446/4/3 445/4/3
f 449/4/3 447/4/3 446/4/3
f 450/4/3 447/4/3 449/4/3
f 451/4/3 447/4/3 450/4/3
f 452/4/3 447/4/3 451/4/3
f 453/4/3 447/4/3 452/4/3
f 454/7/3 448/7/3 447/7/3
f 454/4/3 447/4/3 453/4/3
f 455/4/3 449/4/3 445/4/3
f 455/1/3 450/1/3 449/1/3
f 456/4/3 451/4/3 450/4/3
f 456/1/3 450/1/3 455/1/3
f 457/1/3 452/1/3 451/1/3
f 457/4/3 451/4/3 456/4/3
f 458/4/3 453/4/3 452/4/3
f 458/1/3 452/1/3 457/1/3
f 459/7/3 454/7/3 453/7/3
f 459/4/3 453/4/3 458/4/3
f 460/7/3 448/7/3 454/7/3
f 460/7/3 454/7/3 459/7/3
f 462/4/3 457/4/3 456/4/3
f 462/4/3 459/4/3 458/4/3
f 462/4/3 460/4/3 459/4/3
f 462/4/3 456/4/3 455/4/3
f 462/4/3 455/4/3 445/4/3
f 462/4/3 458/4/3 457/4/3
f 463/4/3 460/4/3 462/4/3
f 464/7/3 448/7/3 460/7/3
f 464/4/3 460/4/3 463/4/3
f 465/7/3 448/7/3 464/7/3
f 466/4/3 464/4/3 463/4/3
f 466/4/3 465/4/3 464/4/3
f 467/4/3 465/4/3 466/4/3
f 472/8/3 462/8/3 461/8/3
f 473/8/3 462/8/3 472/8/3
f 474/8/3 462/8/3 473/8/3
f 475/4/3 465/4/3 467/4/3
f 476/4/3 465/4/3 475/4/3
f 477/7/3 469/7/3 468/7/3
f 478/7/3 469/7/3 477/7/3
f 479/7/3 471/7/3 470/7/3
f 480/7/3 471/7/3 479/7/3
f 481/4/3 474/4/3 473/4/3
f 482/4/3 474/4/3 481/4/3
f 483/4/3 465/4/3 476/4/3
f 484/4/3 465/4/3 483/4/3
f 485/7/3 484/7/3 483/7/3
f 486/7/3 484/7/3 485/7/3
f 489/8/3 488/8/3 487/8/3
f 490/8/3 488/8/3 489/8/3
f 496/8/3 492/8/3 491/8/3
f 497/8/3 492/8/3 496/8/3
f 498/8/3 494/8/3 493/8/3
f 499/1/3 495/1/3 494/1/3
f 499/8/3 494/8/3 498/8/3
f 500/1/3 495/1/3 499/1/3
f 508/7/3 502/7/3 501/7/3
f 509/7/3 502/7/3 508/7/3
f 510/7/3 504/7/3 503/7/3
f 511/7/3 504/7/3 510/7/3
f 514/2/3 506/2/3 505/2/3
f 515/8/3 507/8/3 506/8/3
f 515/2/3 506/2/3 514/2/3
f 516/8/3 507/8/3 515/8/3
f 517/4/3 513/4/3 512/4/3
f 518/4/3 513/4/3 517/4/3
f 523/7/3 520/7/3 519/7/3
f 524/7/3 520/7/3 523/7/3
f 525/7/3 522/7/3 521/7/3
f 526/7/3 522/7/3 525/7/3
f 527/7/4 528/7/4 531/7/4
f 531/7/4 528/7/4 532/7/4
f 529/7/4 530/7/4 533/7/4
f 533/7/4 530/7/4 534/7/4
f 535/7/4 536/7/4 539/7/4
f 539/7/4 536/7/4 540/7/4
f 537/7/4 538/7/4 541/7/4
f 541/7/4 538/7/4 542/7/4
f 543/7/4 544/7/4 547/7/4
f 547/7/4 544/7/4 548/7/4
f 545/7/4 546/7/4 549/7/4
f 549/7/4 546/7/4 550/7/4
f 551/7/4 552/7/4 555/7/4
f 555/7/4 552/7/4 556/7/4
f 553/7/4 554/7/4 557/7/4
f 557/7/4 554/7/4 558/7/4
f 559/7/4 560/7/4 563/7/4
f 563/7/4 560/7/4 564/7/4
f 561/7/4 562/7/4 565/7/4
f 565/7/4 562/7/4 566/7/4
f 567/4/4 568/4/4 569/4/4
f 569/4/4 568/4/4 570/4/4
f 571/7/4 572/7/4 575/7/4
f 575/7/4 572/7/4 576/7/4
f 573/7/4 574/7/4 577/7/4
f 577/7/4 574/7/4 578/7/4
f 576/7/4 577/7/4 579/7/4
f 579/7/4 577/7/4 580/7/4
f 581/7/4 582/7/4 584/7/4
f 584/7/4 582/7/4 585/7/4
f 583/7/4 584/7/4 589/7/4
f 589/7/4 584/7/4 590/7/4
f 585/7/4 586/7/4 591/7/4
f 591/7/4 586/7/4 592/7/4
f 587/4/4 588/4/4 593/4/4
f 593/4/4 588/4/4 594/4/4
f 595/7/4 596/7/4 597/7/4
f 597/7/4 596/7/4 598/7/4
f 599/4/4 600/4/4 603/4/4
f 603/4/4 600/4/4 604/4/4
f 597/4/4 598/4/4 605/4/4
f 604/4/4 605/4/4 606/4/4
f 606/4/4 605/4/4 607/4/4
f 601/8/4 602/8/4 608/8/4
f 608/8/4 602/8/4 609/8/4
f 607/4/4 605/4/4 610/4/4
f 605/4/4 598/4/4 611/4/4
f 610/4/4 605/4/4 611/4/4
f 611/4/4 598/4/4 615/4/4
f 614/4/4 615/4/4 617/4/4
f 612/8/4 613/8/4 618/8/4
f 618/8/4 613/8/4 619/8/4
f 616/4/4 617/4/4 621/4/4
f 617/4/4 615/4/4 622/4/4
f 621/4/4 617/4/4 622/4/4
f 620/4/4 621/4/4 623/4/4
f 623/4/4 621/4/4 624/4/4
f 622/4/4 615/4/4 626/4/4
f 615/4/4 598/4/4 627/4/4
f 626/4/4 615/4/4 627/4/4
f 625/8/4 626/8/4 630/8/4
f 626/7/4 627/7/4 631/7/4
f 630/8/4 626/8/4 631/8/4
f 627/8/4 628/8/4 632/8/4
f 631/7/4 627/7/4 632/7/4
f 628/1/4 629/1/4 633/1/4
f 632/8/4 628/8/4 633/8/4
f 633/1/4 629/1/4 634/1/4
f 631/7/4 632/7/4 635/7/4
f 635/7/4 632/7/4 636/7/4
f 637/4/4 638/4/4 645/4/4
f 639/3/4 640/3/4 647/3/4
f 640/7/4 641/7/4 647/7/4
f 647/7/4 641/7/4 648/7/4
f 642/7/4 643/7/4 649/7/4
f 643/3/4 644/3/4 650/3/4
f 649/7/4 643/7/4 650/7/4
f 645/4/4 646/4/4 651/4/4
f 645/4/4 651/4/4 653/4/4
f 651/4/4 652/4/4 653/4/4
f 653/4/4 652/4/4 654/4/4
f 637/4/4 645/4/4 655/4/4
f 645/4/4 653/4/4 655/4/4
f 655/4/4 653/4/4 656/4/4
f 639/3/4 647/3/4 657/3/4
f 650/3/4 644/3/4 660/3/4
f 637/4/4 655/4/4 661/4/4
f 661/4/4 655/4/4 662/4/4
f 639/3/4 657/3/4 663/3/4
f 657/7/4 658/7/4 664/7/4
f 663/3/4 657/3/4 664/3/4
f 664/7/4 658/7/4 665/7/4
f 659/7/4 660/7/4 666/7/4
f 660/3/4 644/3/4 667/3/4
f 666/7/4 660/7/4 667/7/4
f 667/3/4 644/3/4 668/3/4
f 669/2/4 670/2/4 672/2/4
f 670/8/4 671/8/4 673/8/4
f 672/2/4 670/2/4 673/2/4
f 673/8/4 671/8/4 674/8/4
f 675/8/4 676/8/4 677/8/4
f 677/8/4 676/8/4 678/8/4
f 683/8/5 680/8/5 679/8/5
f 684/8/5 680/8/5 683/8/5
f 685/8/5 682/8/5 681/8/5
f 686/8/5 682/8/5 685/8/5
f 691/4/5 688/4/5 687/4/5
f 691/4/5 690/4/5 689/4/5
f 691/4/5 689/4/5 688/4/5
f 692/4/5 690/4/5 691/4/5
f 697/4/5 694/4/5 693/4/5
f 698/4/5 694/4/5 697/4/5
f 699/4/5 696/4/5 695/4/5
f 700/4/5 696/4/5 699/4/5
f 705/4/5 702/4/5 701/4/5
f 706/4/5 702/4/5 705/4/5
f 707/4/5 702/4/5 706/4/5
f 708/4/5 704/4/5 703/4/5
f 709/4/5 704/4/5 708/4/5
f 710/4/5 704/4/5 709/4/5
f 711/4/5 708/4/5 707/4/5
f 712/4/5 708/4/5 711/4/5
f 715/8/5 714/8/5 713/8/5
f 716/8/5 714/8/5 715/8/5
f 723/4/5 721/4/5 720/4/5
f 723/7/5 722/7/5 721/7/5
f 724/7/5 722/7/5 723/7/5
f 725/7/5 718/7/5 717/7/5
f 726/4/5 719/4/5 718/4/5
f 726/7/5 718/7/5 725/7/5
f 727/4/5 719/4/5 726/4/5
f 728/4/5 723/4/5 720/4/5
f 729/4/5 723/4/5 728/4/5
f 730/7/5 722/7/5 724/7/5
f 731/7/5 722/7/5 730/7/5
f 735/3/5 733/3/5 732/3/5
f 736/3/5 733/3/5 735/3/5
f 738/3/5 735/3/5 734/3/5
f 738/3/5 737/3/5 736/3/5
f 738/3/5 736/3/5 735/3/5
f 739/3/5 737/3/5 738/3/5
f 746/7/5 741/7/5 740/7/5
f 747/5/5 742/5/5 741/5/5
f 747/7/5 741/7/5 746/7/5
f 748/5/5 742/5/5 747/5/5
f 749/6/5 744/6/5 743/6/5
f 750/7/5 745/7/5 744/7/5
f 750/6/5 744/6/5 749/6/5
f 751/7/5 745/7/5 750/7/5
f 752/7/5 748/7/5 747/7/5
f 752/7/5 747/7/5 746/7/5
f 753/7/5 748/7/5 752/7/5
f 754/7/5 751/7/5 750/7/5
f 754/7/5 750/7/5 749/7/5
f 755/7/5 751/7/5 754/7/5
f 762/7/5 757/7/5 756/7/5
f 763/7/5 757/7/5 762/7/5
f 764/7/5 759/7/5 758/7/5
f 765/7/5 759/7/5 764/7/5
f 766/7/5 761/7/5 760/7/5
f 767/7/5 761/7/5 766/7/5
f 772/7/5 769/7/5 768/7/5
f 773/7/5 769/7/5 772/7/5
f 774/7/5 771/7/5 770/7/5
f 775/7/5 771/7/5 774/7/5
f 780/7/5 777/7/5 776/7/5
f 781/7/5 777/7/5 780/7/5
f 782/7/5 779/7/5 778/7/5
f 783/7/5 779/7/5 782/7/5
f 788/7/5 785/7/5 784/7/5
f 789/7/5 785/7/5 788/7/5
f 790/7/5 787/7/5 786/7/5
f 791/7/5 787/7/5 790/7/5
f 798/3/5 793/3/5 792/3/5
f 799/3/5 793/3/5 798/3/5
f 800/3/5 795/3/5 794/3/5
f 801/3/5 795/3/5 800/3/5
f 804/3/5 797/3/5 796/3/5
f 804/3/5 803/3/5 802/3/5
f 804/3/5 802/3/5 801/3/5
f 804/3/5 801/3/5 800/3/5
f 804/3/5 800/3/5 799/3/5
f 804/3/5 799/3/5 798/3/5
f 804/3/5 798/3/5 797/3/5
f 805/3/5 803/3/5 804/3/5
f 806/3/5 803/3/5 805/3/5
f 807/3/5 803/3/5 806/3/5
f 809/3/5 806/3/5 805/3/5
f 810/3/5 806/3/5 809/3/5
f 812/3/5 809/3/5 808/3/5
f 812/3/5 811/3/5 810/3/5
f 812/3/5 810/3/5 809/3/5
f 813/3/5 811/3/5 812/3/5
f 814/3/5 811/3/5 813/3/5
f 815/3/5 811/3/5 814/3/5
f 817/3/5 814/3/5 813/3/5
f 818/3/5 814/3/5 817/3/5
f 820/3/5 817/3/5 816/3/5
f 820/3/5 819/3/5 818/3/5
f 820/3/5 818/3/5 817/3/5
f 821/3/5 819/3/5 820/3/5
f 822/3/5 819/3/5 821/3/5
f 823/3/5 819/3/5 822/3/5
f 824/3/5 822/3/5 821/3/5
f 825/3/5 822/3/5 824/3/5
f 828/8/5 827/8/5 826/8/5
f 829/8/5 827/8/5 828/8/5
f 830/8/6 831/8/6 834/8/6
f 834/8/6 831/8/6 835/8/6
f 832/8/6 833/8/6 836/8/6
f 836/8/6 833/8/6 837/8/6
f 838/4/6 839/4/6 842/4/6
f 842/4/6 839/4/6 843/4/6
f 840/4/6 841/4/6 844/4/6
f 844/4/6 841/4/6 845/4/6
f 846/4/6 847/4/6 850/4/6
f 850/4/6 847/4/6 851/4/6
f 848/4/6 849/4/6 854/4/6
f 854/4/6 849/4/6 855/4/6
f 851/4/6 852/4/6 856/4/6
f 856/4/6 852/4/6 857/4/6
f 853/4/6 854/4/6 858/4/6
f 858/4/6 854/4/6 859/4/6
f 860/4/6 861/4/6 864/4/6
f 864/4/6 861/4/6 865/4/6
f 862/4/6 863/4/6 866/4/6
f 866/4/6 863/4/6 867/4/6
f 860/4/6 864/4/6 868/4/6
f 868/4/6 864/4/6 869/4/6
f 867/4/6 863/4/6 870/4/6
f 870/4/6 863/4/6 871/4/6
f 872/4/6 873/4/6 876/4/6
f 876/4/6 873/4/6 877/4/6
f 874/4/6 875/4/6 878/4/6
f 878/4/6 875/4/6 879/4/6
f 880/4/6 881/4/6 882/4/6
f 882/4/6 881/4/6 883/4/6
f 885/4/6 886/4/6 890/4/6
f 886/7/6 887/7/6 890/7/6
f 887/4/6 888/4/6 891/4/6
f 890/7/6 887/7/6 891/7/6
f 888/7/6 889/7/6 892/7/6
f 891/4/6 888/4/6 892/4/6
f 892/7/6 889/7/6 893/7/6
f 884/7/6 885/7/6 894/7/6
f 890/4/6 891/4/6 895/4/6
f 894/7/6 885/7/6 895/7/6
f 885/4/6 890/4/6 895/4/6
f 891/4/6 892/4/6 895/4/6
f 895/4/6 892/4/6 896/4/6
f 893/7/6 889/7/6 897/7/6
f 897/7/6 889/7/6 898/7/6
f 899/3/6 900/3/6 905/3/6
f 905/3/6 900/3/6 906/3/6
f 901/3/6 902/3/6 907/3/6
f 907/3/6 902/3/6 908/3/6
f 903/3/6 904/3/6 911/3/6
f 909/3/6 910/3/6 911/3/6
f 908/3/6 909/3/6 911/3/6
f 907/3/6 908/3/6 911/3/6
f 906/3/6 907/3/6 911/3/6
f 905/3/6 906/3/6 911/3/6
f 904/3/6 905/3/6 911/3/6
f 911/3/6 910/3/6 912/3/6
f 912/3/6 910/3/6 913/3/6
f 913/3/6 910/3/6 914/3/6
f 912/3/6 913/3/6 916/3/6
f 916/3/6 913/3/6 917/3/6
f 915/3/6 916/3/6 919/3/6
f 917/3/6 918/3/6 919/3/6
f 916/3/6 917/3/6 919/3/6
f 919/3/6 918/3/6 920/3/6
f 920/3/6 918/3/6 921/3/6
f 921/3/6 918/3/6 922/3/6
f 920/3/6 921/3/6 924/3/6
f 924/3/6 921/3/6 925/3/6
f 923/3/6 924/3/6 927/3/6
f 925/3/6 926/3/6 927/3/6
f 924/3/6 925/3/6 927/3/6
f 927/3/6 926/3/6 928/3/6
f 928/3/6 926/3/6 929/3/6
f 929/3/6 926/3/6 930/3/6
f 928/3/6 929/3/6 931/3/6
f 931/3/6 929/3/6 932/3/6
f 933/7/6 934/7/6 939/7/6
f 939/7/6 934/7/6 940/7/6
f 935/7/6 936/7/6 941/7/6
f 941/7/6 936/7/6 942/7/6
f 937/7/6 938/7/6 943/7/6
f 943/7/6 938/7/6 944/7/6
f 945/7/6 946/7/6 949/7/6
f 949/7/6 946/7/6 950/7/6
f 947/7/6 948/7/6 951/7/6
f 951/7/6 948/7/6 952/7/6
f 953/7/6 954/7/6 957/7/6
f 957/7/6 954/7/6 958/7/6
f 955/7/6 956/7/6 959/7/6
f 959/7/6 956/7/6 960/7/6
f 961/1/6 962/1/6 967/1/6
f 967/1/6 962/1/6 968/1/6
f 963/7/6 964/7/6 969/7/6
f 969/7/6 964/7/6 970/7/6
f 965/7/6 966/7/6 971/7/6
f 971/7/6 966/7/6 972/7/6
f 973/7/6 974/7/6 977/7/6
f 975/7/6 976/7/6 978/7/6
f 977/7/6 974/7/6 979/7/6
f 979/7/6 974/7/6 980/7/6
f 975/7/6 978/7/6 981/7/6
f 981/7/6 978/7/6 982/7/6
f 983/3/6 984/3/6 986/3/6
f 986/3/6 984/3/6 987/3/6
f 985/3/6 986/3/6 989/3/6
f 987/3/6 988/3/6 989/3/6
f 986/3/6 987/3/6 989/3/6
f 989/3/6 988/3/6 990/3/6
f 991/8/6 992/8/6 993/8/6
f 993/8/6 992/8/6 994/8/6
f 991/8/6 993/8/6 995/8/6
f 994/8/6 992/8/6 996/8/6
f 991/8/6 995/8/6 997/8/6
f 995/8/6 996/8/6 997/8/6
f 996/8/6 992/8/6 998/8/6
f 997/8/6 996/8/6 998/8/6
f 999/8/6 1000/8/6 1001/8/6
f 1001/8/6 1000/8/6 1002/8/6
