# MagicaVoxel @ Ephtracy

# group
o 

# material
mtllib chest.mtl
usemtl palette

# normals
vn -1 0 0
vn 1 0 0
vn 0 0 1
vn 0 0 -1
vn 0 -1 0
vn 0 1 0

# texcoords
vt 0.306641 0.5
vt 0.369141 0.5
vt 0.986328 0.5

# verts
v -1.1 0 1.2
v -1.1 0 -1
v -1.1 0.1 1.1
v -1.1 0.1 -0.9
v -1.1 1.7 1.1
v -1.1 1.7 -0.9
v -1.1 1.8 1.1
v -1.1 1.8 -0.9
v -1.1 2.2 1.1
v -1.1 2.2 -0.9
v -1.1 2.3 1.2
v -1.1 2.3 -1
v 1.1 0 1.2
v 1.1 0 -1
v 1.1 0.1 1.1
v 1.1 0.1 -0.9
v 1.1 1.7 1.1
v 1.1 1.7 -0.9
v 1.1 1.8 1.1
v 1.1 1.8 -0.9
v 1.1 2.2 1.1
v 1.1 2.2 -0.9
v 1.1 2.3 1.2
v 1.1 2.3 -1
v -1.1 0 1.2
v -1.1 2.3 1.2
v -1 0.1 1.2
v -1 1.7 1.2
v -1 1.8 1.2
v -1 2.2 1.2
v 1 0.1 1.2
v 1 1.7 1.2
v 1 1.8 1.2
v 1 2.2 1.2
v 1.1 0 1.2
v 1.1 2.3 1.2
v -1.1 0 -1
v -1.1 2.3 -1
v -1 0.1 -1
v -1 1.7 -1
v -1 1.8 -1
v -1 2.2 -1
v -0.2 1.9 -1
v -0.2 2.1 -1
v -0.1 1.9 -1
v -0.1 2 -1
v 0.2 1.9 -1
v 0.2 2 -1
v 0.3 1.9 -1
v 0.3 2.1 -1
v 1 0.1 -1
v 1 1.7 -1
v 1 1.8 -1
v 1 2.2 -1
v 1.1 0 -1
v 1.1 2.3 -1
v -1.1 0 1.2
v 1.1 0 1.2
v -1 0 1.1
v 1 0 1.1
v -1 0 -0.9
v 1 0 -0.9
v -1.1 0 -1
v 1.1 0 -1
v -1.1 2.3 1.2
v 1.1 2.3 1.2
v -1 2.3 1.1
v 1 2.3 1.1
v -1 2.3 -0.9
v 1 2.3 -0.9
v -1.1 2.3 -1
v 1.1 2.3 -1

# faces
f 3/3/1 2/3/1 1/3/1
f 4/3/1 2/3/1 3/3/1
f 5/3/1 3/3/1 1/3/1
f 5/2/1 4/2/1 3/2/1
f 6/3/1 2/3/1 4/3/1
f 6/2/1 4/2/1 5/2/1
f 7/3/1 5/3/1 1/3/1
f 7/3/1 6/3/1 5/3/1
f 8/3/1 2/3/1 6/3/1
f 8/3/1 6/3/1 7/3/1
f 9/3/1 7/3/1 1/3/1
f 9/2/1 8/2/1 7/2/1
f 10/3/1 2/3/1 8/3/1
f 10/2/1 8/2/1 9/2/1
f 11/3/1 9/3/1 1/3/1
f 11/3/1 10/3/1 9/3/1
f 12/3/1 2/3/1 10/3/1
f 12/3/1 10/3/1 11/3/1
f 13/3/2 14/3/2 15/3/2
f 15/3/2 14/3/2 16/3/2
f 13/3/2 15/3/2 17/3/2
f 15/2/2 16/2/2 17/2/2
f 16/3/2 14/3/2 18/3/2
f 17/2/2 16/2/2 18/2/2
f 13/3/2 17/3/2 19/3/2
f 17/3/2 18/3/2 19/3/2
f 18/3/2 14/3/2 20/3/2
f 19/3/2 18/3/2 20/3/2
f 13/3/2 19/3/2 21/3/2
f 19/2/2 20/2/2 21/2/2
f 20/3/2 14/3/2 22/3/2
f 21/2/2 20/2/2 22/2/2
f 13/3/2 21/3/2 23/3/2
f 21/3/2 22/3/2 23/3/2
f 22/3/2 14/3/2 24/3/2
f 23/3/2 22/3/2 24/3/2
f 27/3/3 26/3/3 25/3/3
f 28/3/3 26/3/3 27/3/3
f 29/3/3 26/3/3 28/3/3
f 30/3/3 26/3/3 29/3/3
f 31/3/3 27/3/3 25/3/3
f 31/2/3 28/2/3 27/2/3
f 32/3/3 29/3/3 28/3/3
f 32/2/3 28/2/3 31/2/3
f 33/2/3 30/2/3 29/2/3
f 33/3/3 29/3/3 32/3/3
f 34/3/3 26/3/3 30/3/3
f 34/2/3 30/2/3 33/2/3
f 35/3/3 33/3/3 32/3/3
f 35/3/3 32/3/3 31/3/3
f 35/3/3 34/3/3 33/3/3
f 35/3/3 31/3/3 25/3/3
f 36/3/3 26/3/3 34/3/3
f 36/3/3 34/3/3 35/3/3
f 37/3/4 38/3/4 39/3/4
f 39/3/4 38/3/4 40/3/4
f 40/3/4 38/3/4 41/3/4
f 41/3/4 38/3/4 42/3/4
f 41/2/4 42/2/4 43/2/4
f 43/2/4 42/2/4 44/2/4
f 41/2/4 43/2/4 45/2/4
f 43/3/4 44/3/4 45/3/4
f 45/3/4 44/3/4 46/3/4
f 41/2/4 45/2/4 47/2/4
f 45/2/4 46/2/4 47/2/4
f 46/3/4 44/3/4 48/3/4
f 47/2/4 46/2/4 48/2/4
f 41/2/4 47/2/4 49/2/4
f 47/3/4 48/3/4 49/3/4
f 44/2/4 42/2/4 50/2/4
f 49/3/4 48/3/4 50/3/4
f 48/3/4 44/3/4 50/3/4
f 37/3/4 39/3/4 51/3/4
f 39/2/4 40/2/4 51/2/4
f 40/3/4 41/3/4 52/3/4
f 51/2/4 40/2/4 52/2/4
f 49/2/4 50/2/4 53/2/4
f 52/3/4 41/3/4 53/3/4
f 41/2/4 49/2/4 53/2/4
f 50/2/4 42/2/4 54/2/4
f 53/2/4 50/2/4 54/2/4
f 42/3/4 38/3/4 54/3/4
f 52/3/4 53/3/4 55/3/4
f 51/3/4 52/3/4 55/3/4
f 53/3/4 54/3/4 55/3/4
f 37/3/4 51/3/4 55/3/4
f 54/3/4 38/3/4 56/3/4
f 55/3/4 54/3/4 56/3/4
f 59/3/5 58/3/5 57/3/5
f 60/3/5 58/3/5 59/3/5
f 61/3/5 59/3/5 57/3/5
f 61/2/5 60/2/5 59/2/5
f 62/3/5 58/3/5 60/3/5
f 62/2/5 60/2/5 61/2/5
f 63/3/5 61/3/5 57/3/5
f 63/3/5 62/3/5 61/3/5
f 64/3/5 58/3/5 62/3/5
f 64/3/5 62/3/5 63/3/5
f 65/3/6 66/3/6 67/3/6
f 67/3/6 66/3/6 68/3/6
f 65/3/6 67/3/6 69/3/6
f 67/2/6 68/2/6 69/2/6
f 68/3/6 66/3/6 70/3/6
f 69/2/6 68/2/6 70/2/6
f 65/3/6 69/3/6 71/3/6
f 69/3/6 70/3/6 71/3/6
f 70/3/6 66/3/6 72/3/6
f 71/3/6 70/3/6 72/3/6
